HIERARCHY
ROOT Hips
{
	OFFSET 0.00000 0.00000 0.00000
	CHANNELS 6 Xposition Yposition Zposition Zrotation Yrotation Xrotation 
	JOINT LHipJoint
	{
		OFFSET 0 0 0
		CHANNELS 3 Zrotation Yrotation Xrotation
		JOINT LeftHip
		{
			OFFSET 1.53139 -1.83434 0.76626
			CHANNELS 3 Zrotation Yrotation Xrotation
			JOINT LeftKnee
			{
				OFFSET 2.56112 -7.03663 0.00000
				CHANNELS 3 Zrotation Yrotation Xrotation
				JOINT LeftAnkle
				{
					OFFSET 2.59983 -7.14299 0.00000
					CHANNELS 3 Zrotation Yrotation Xrotation
					JOINT LeftToe
					{
						OFFSET 0.13742 -0.37757 2.00054
						CHANNELS 3 Zrotation Yrotation Xrotation
						End Site
						{
							OFFSET 0.00000 -0.00000 1.02897
						}
					}
				}
			}
		}
	}
	JOINT RHipJoint
	{
		OFFSET 0 0 0
		CHANNELS 3 Zrotation Yrotation Xrotation
		JOINT RightHip
		{
			OFFSET -1.40122 -1.83435 0.76627
			CHANNELS 3 Zrotation Yrotation Xrotation
			JOINT RightKnee
			{
				OFFSET -2.54052 -6.98003 0.00000
				CHANNELS 3 Zrotation Yrotation Xrotation
				JOINT RightAnkle
				{
					OFFSET -2.63179 -7.23079 0.00000
					CHANNELS 3 Zrotation Yrotation Xrotation
					JOINT RightToe
					{
						OFFSET -0.24131 -0.66299 2.03908
						CHANNELS 3 Zrotation Yrotation Xrotation
						End Site
						{
							OFFSET -0.00000 -0.00000 1.07391
						}
					}
				}
			}
		}
	}
	JOINT lowerback
	{
		OFFSET 0 0 0
		CHANNELS 3 Zrotation Yrotation Xrotation
		JOINT Chest
		{
			OFFSET 0.01174 2.10302 -0.29778
			CHANNELS 3 Zrotation Yrotation Xrotation
			JOINT Chest2
			{
				OFFSET 0.00772 2.13227 -0.01247
				CHANNELS 3 Zrotation Yrotation Xrotation
				JOINT lowerneck
				{
					OFFSET 0 0 0
					CHANNELS 3 Zrotation Yrotation Xrotation
					JOINT Neck
					{
						OFFSET -0.09219 1.60848 0.31481
						CHANNELS 3 Zrotation Yrotation Xrotation
						JOINT Head
						{
							OFFSET 0.13974 1.65456 -0.31134
							CHANNELS 3 Zrotation Yrotation Xrotation
							End Site
							{
								OFFSET 0.04742 1.69515 -0.14578
							}
						}
					}
				}
				JOINT LeftCollar
				{
					OFFSET 0 0 0
					CHANNELS 3 Zrotation Yrotation Xrotation
					JOINT LeftShoulder
					{
						OFFSET 3.24909 1.02882 -0.23993
CHANNELS 3 Zrotation Xrotation Yrotation
						JOINT LeftElbow
						{
OFFSET 0 -5.329550 -0.000000
CHANNELS 3 Zrotation Xrotation Yrotation
							JOINT LeftWrist
							{
OFFSET 0 -3.692320 -0.000000
CHANNELS 3 Zrotation Xrotation Yrotation
								JOINT lhand
								{
									OFFSET 0 0 0
CHANNELS 3 Zrotation Xrotation Yrotation
									JOINT LFingers
									{
OFFSET 0 -0.536600 -0.000000
CHANNELS 3 Zrotation Xrotation Yrotation
										End Site
										{
OFFSET 0 -0.432620 -0.000000
										}
									}
								}
								JOINT LThumb
								{
OFFSET 0 0.000000 0.000000
CHANNELS 3 Zrotation Xrotation Yrotation
									End Site
									{
OFFSET 0 -0.439220 0.439220
									}
								}
							}
						}
					}
				}
				JOINT RightCollar
				{
					OFFSET 0 0 0
					CHANNELS 3 Zrotation Yrotation Xrotation
					JOINT RightShoulder
					{
						OFFSET -3.21387 0.93002 -0.34594
CHANNELS 3 Zrotation Xrotation Yrotation
						JOINT RightElbow
						{
OFFSET 0 -5.234310 0.000000
CHANNELS 3 Zrotation Xrotation Yrotation
							JOINT RightWrist
							{
OFFSET 0 -3.553010 -0.000000
CHANNELS 3 Zrotation Xrotation Yrotation
								JOINT rhand
								{
									OFFSET 0 0 0
CHANNELS 3 Zrotation Xrotation Yrotation
									JOINT RFingers
									{
OFFSET 0 -0.772520 -0.000000
CHANNELS 3 Zrotation Xrotation Yrotation
										End Site
										{
OFFSET 0 -0.622830 -0.000000
										}
									}
								}
								JOINT RThumb
								{
OFFSET 0 0.000000 0.000000
CHANNELS 3 Zrotation Xrotation Yrotation
									End Site
									{
OFFSET 0 -0.632340 0.632340
									}
								}
							}
						}
					}
				}
			}
		}
	}
}
MOTION
Frames: 7
Frame Time: 0.008333333333333333
15.416600 17.552500 -11.049800 33.701300 -80.193600 -36.657300 0.000000 0.000000 0.000000 -15.473200 -4.686700 -1.257900 1.073100 6.584900 18.491400 0.195600 -7.466100 -8.818700 2.760700 -10.297200 -29.944700 0.000000 0.000000 0.000000 -0.720200 11.644000 3.162900 -2.967700 -10.642600 31.083800 0.043700 -8.685000 -11.510900 -0.018400 -0.876400 2.408800 -0.287500 1.373300 12.203000 -0.347700 1.723900 0.846100 -0.496100 0.832300 -5.953900 -11.387500 -3.079300 -19.952700 4.010700 -2.561700 34.487500 3.139900 -2.279500 15.803400 0.000000 0.000000 0.000000 2.600600 2.276000 -12.748600 16.975700 -26.825700 4.076400 20.837400 13.342900 -23.561300 0.000000 0.000000 0.000000 -7.125000 0.000000 0.000000 -8.931700 54.771700 2.156700 0.000000 0.000000 0.000000 -6.267100 0.657900 0.577000 -15.577600 -24.944600 -3.465900 -15.333600 7.461100 -8.212000 0.000000 0.000000 0.000000 7.125000 0.000000 -0.000000 8.336900 21.503700 4.750100
15.422707 17.564306 -10.917132 32.801090 -79.862918 -35.788322 0.000000 0.000000 0.000000 -15.958550 -4.695886 -1.257929 1.069162 6.573399 18.457590 0.181582 -8.136153 -8.869202 2.607234 -10.030296 -29.074782 0.000000 0.000000 0.000000 -0.792508 11.721184 2.850852 -3.108690 -10.868796 31.838983 0.214598 -10.392808 -10.645400 -0.081758 -1.794547 4.939952 -0.389763 1.323785 12.226863 -0.230182 1.650667 0.894484 -0.302469 0.800211 -5.922884 -11.500356 -3.161892 -19.922680 3.959805 -2.626175 34.456717 3.124006 -2.326831 15.792041 0.000000 0.000000 0.000000 2.338186 2.088105 -12.936451 16.833117 -26.637151 4.012208 20.714654 13.390194 -23.489848 0.000000 0.000000 0.000000 -7.125000 0.000000 0.000000 -9.029356 54.674494 2.159111 0.000000 0.000000 0.000000 -6.433410 0.665839 0.551080 -15.575656 -24.942004 -3.465103 -15.420237 7.185075 -8.132665 0.000000 0.000000 0.000000 7.125000 0.000000 0.000000 8.276830 21.581085 4.700476
15.428293 17.583884 -10.788245 32.137271 -79.524762 -35.093061 0.000000 0.000000 0.000000 -16.488768 -4.650239 -1.280035 1.051976 6.521991 18.306867 0.159833 -8.733152 -8.805304 2.552004 -9.931748 -28.756063 0.000000 0.000000 0.000000 -0.864563 11.903409 2.503597 -3.256295 -11.098493 32.613021 0.389966 -12.091367 -9.874590 -0.357518 -3.752239 10.392659 -0.479600 1.268548 12.182993 -0.196618 1.566949 0.936571 -0.200601 0.761744 -5.857250 -11.577141 -3.235539 -19.940308 4.040035 -2.737847 34.489212 3.151613 -2.372951 15.827569 0.000000 0.000000 0.000000 2.274487 1.884417 -13.285845 16.654691 -26.400213 3.932587 20.977734 13.614568 -23.450624 0.000000 0.000000 0.000000 -7.125000 0.000000 0.000000 -8.741885 54.686097 2.091605 0.000000 0.000000 0.000000 -6.359449 0.606748 0.249622 -15.592619 -24.965165 -3.472253 -15.396689 7.134878 -8.086727 0.000000 0.000000 0.000000 7.125000 0.000000 0.000000 8.295257 21.629205 4.701951
15.434515 17.603972 -10.668521 31.784114 -79.190231 -34.763327 0.000000 0.000000 0.000000 -17.012207 -4.242800 -1.330907 1.027388 6.447603 18.088715 0.122344 -9.399171 -8.574850 2.528438 -9.889442 -28.619388 0.000000 0.000000 0.000000 -0.850019 12.226118 2.296709 -3.401632 -11.318076 33.360720 0.583195 -13.928873 -9.389742 -0.971619 -6.231830 17.473466 -0.666368 1.184414 12.191071 -0.205503 1.428023 0.997336 -0.080290 0.697533 -5.801836 -11.586654 -3.251146 -19.942884 4.187600 -2.818521 34.537655 3.203356 -2.389313 15.861956 0.000000 0.000000 0.000000 2.350737 1.706373 -13.685389 16.498989 -26.192420 3.863608 21.424786 13.798508 -23.682604 0.000000 0.000000 0.000000 -7.125000 0.000000 0.000000 -8.372410 55.012880 2.069427 0.000000 0.000000 0.000000 -6.176873 0.527536 0.114956 -15.608085 -24.986338 -3.478788 -15.440214 7.134485 -8.061174 0.000000 0.000000 0.000000 7.125000 0.000000 0.000000 8.264579 21.653472 4.679622
15.436592 17.623964 -10.552949 31.403110 -78.944533 -34.469307 0.000000 0.000000 0.000000 -17.480926 -3.801199 -1.218486 0.991090 6.335988 17.762475 0.090318 -9.942415 -8.396437 2.470318 -9.782689 -28.276678 0.000000 0.000000 0.000000 -0.684277 12.624471 2.156581 -3.550408 -11.536272 34.111347 0.840141 -16.183733 -9.001178 -1.526875 -7.799760 22.108642 -0.834924 1.108267 12.219526 -0.178121 1.304218 1.056383 0.064836 0.640495 -5.759247 -11.660606 -3.272079 -19.842461 4.354133 -2.904362 34.529824 3.272378 -2.412870 15.847550 0.000000 0.000000 0.000000 2.465243 1.591697 -14.150685 16.343949 -25.984754 3.795480 21.484729 13.457906 -23.545373 0.000000 0.000000 0.000000 -7.125000 0.000000 0.000000 -8.255409 54.883705 2.014277 0.000000 0.000000 0.000000 -6.062222 0.505452 0.092568 -15.611729 -24.991321 -3.480316 -15.441763 7.194562 -8.070000 0.000000 0.000000 0.000000 7.125000 0.000000 0.000000 8.263175 21.644376 4.680569
15.438312 17.643538 -10.441309 30.844635 -78.709527 -33.931256 0.000000 0.000000 0.000000 -17.926966 -3.638135 -1.053033 0.954374 6.220708 17.426298 0.076235 -10.230079 -8.355840 2.329572 -9.520848 -27.438891 0.000000 0.000000 0.000000 -0.515049 12.833284 1.840647 -3.697648 -11.746256 34.840835 1.079208 -18.113130 -8.913465 -1.761891 -8.341597 23.762452 -1.063550 1.052505 12.245140 -0.025877 1.208882 1.023913 0.368905 0.601748 -5.815053 -11.936671 -3.330539 -19.699939 4.440129 -2.953481 34.596649 3.349510 -2.465020 15.862558 0.000000 0.000000 0.000000 2.399977 1.602371 -14.600637 16.202268 -25.794147 3.733553 21.430139 13.373998 -23.307115 0.000000 0.000000 0.000000 -7.125000 0.000000 0.000000 -8.217764 54.627439 1.953548 0.000000 0.000000 0.000000 -6.172027 0.575408 -0.002917 -15.605407 -24.982662 -3.477634 -15.445611 7.335681 -8.163273 0.000000 0.000000 0.000000 7.125000 0.000000 0.000000 8.257554 21.548563 4.695424
15.442451 17.660209 -10.334040 30.514534 -78.417014 -33.559613 0.000000 0.000000 0.000000 -18.445793 -3.637982 -0.919973 0.923350 6.121740 17.138108 0.072360 -10.333532 -8.361283 2.320713 -9.503446 -27.383965 0.000000 0.000000 0.000000 -0.426253 12.908606 1.413496 -3.841521 -11.945990 35.541856 1.152729 -18.718451 -9.380236 -2.020402 -8.908437 25.509363 -1.398909 1.015753 12.221922 0.120656 1.124736 0.992650 0.726255 0.571274 -5.843578 -12.126657 -3.395218 -19.628641 4.404674 -2.986037 34.670919 3.361834 -2.514809 15.892771 0.000000 0.000000 0.000000 2.327316 1.569046 -15.225709 16.090409 -25.643050 3.685021 21.332790 13.529833 -23.394098 0.000000 0.000000 0.000000 -7.125000 0.000000 0.000000 -8.352954 54.697732 2.000552 0.000000 0.000000 0.000000 -6.228475 0.591294 -0.259882 -15.574684 -24.940576 -3.464679 -15.588332 7.643937 -8.357095 0.000000 0.000000 0.000000 7.125000 0.000000 0.000000 8.149005 21.343199 4.670571
